<?xml version="1.0" encoding="utf-8"?>
<!-- Generator: Adobe Illustrator 24.0.1, SVG Export Plug-In . SVG Version: 6.00 Build 0)  -->
<svg version="1.1" id="Layer_1" xmlns:svgjs="http://svgjs.com/svgjs"
	 xmlns="http://www.w3.org/2000/svg" xmlns:xlink="http://www.w3.org/1999/xlink" x="0px" y="0px" viewBox="0 0 512 512"
	 style="enable-background:new 0 0 512 512;" xml:space="preserve">
<style type="text/css">
	.st0{fill:#4C4C4C;}
</style>
<g>
	<g>
		<g>
			<path class="st0" d="M96.5,259.5c-19.3,0-35,15.7-35,35s15.7,35,35,35s35-15.7,35-35S115.8,259.5,96.5,259.5z M96.5,314.5
				c-11,0-20-9-20-20s9-20,20-20s20,9,20,20S107.5,314.5,96.5,314.5z"/>
		</g>
	</g>
	<g>
		<g>
			<path class="st0" d="M399.5,259.5c-19.3,0-35,15.7-35,35s15.7,35,35,35s35-15.7,35-35S418.8,259.5,399.5,259.5z M399.5,314.5
				c-11,0-20-9-20-20s9-20,20-20s20,9,20,20S410.5,314.5,399.5,314.5z"/>
		</g>
	</g>
	<g>
		<g>
			<path class="st0" d="M398.5,131.5c-19.3,0-35,15.7-35,35s15.7,35,35,35s35-15.7,35-35S417.8,131.5,398.5,131.5z M398.5,186.5
				c-11,0-20-9-20-20s9-20,20-20c11,0,20,9,20,20S409.5,186.5,398.5,186.5z"/>
		</g>
	</g>
	<g>
		<g>
			<path class="st0" d="M481,225h-0.1c-1.8-54.8-23.1-106.2-60.6-146.2l0.1-0.1c2.9-2.9,2.9-7.7,0-10.6c-2.9-2.9-7.7-2.9-10.6,0
				l-0.1,0.1c-40-37.5-91.4-58.8-146.2-60.6V7.5c0-4.1-3.4-7.5-7.5-7.5s-7.5,3.4-7.5,7.5v0.1c-54.8,1.8-106.2,23.1-146.2,60.6
				l-0.1-0.1c-2.9-2.9-7.7-2.9-10.6,0c-2.9,2.9-2.9,7.7,0,10.6l0.1,0.1c-37.5,40-58.8,91.4-60.6,146.2H31c-4.1,0-7.5,3.4-7.5,7.5
				s3.4,7.5,7.5,7.5h0.1c1.8,55,23.6,106.8,60.6,146.2l-0.1,0.1c-2.9,2.9-2.9,7.7,0,10.6c1.5,1.5,3.4,2.2,5.3,2.2s3.8-0.7,5.3-2.2
				l0.1-0.1c7.4,6.9,15.3,13.4,23.7,19.3c-27.6,69-27.9,69.8-27.5,73.5C98.6,502,108.7,512,121,512h270c12.3,0,22.4-10,22.5-22.3
				c0.4-3.7,0.2-4.2-27.5-73.5c8.4-5.9,16.3-12.4,23.7-19.3l0.1,0.1c1.5,1.5,3.4,2.2,5.3,2.2c1.9,0,3.8-0.7,5.3-2.2
				c2.9-2.9,2.9-7.7,0-10.6l-0.1-0.1c36.9-39.5,58.7-91.2,60.6-146.2h0.1c4.1,0,7.5-3.4,7.5-7.5S485.1,225,481,225z M263.5,22.6
				c52.3,1.8,99.7,22.9,135.5,56.2L287.5,190.4c-6.9-5.2-15.1-8.6-24-9.9V22.6z M248.5,22.6v157.9c-8.8,1.3-17,4.7-24,9.9L113,78.9
				C148.8,45.5,196.2,24.5,248.5,22.6z M102.4,89.5L213.9,201c-2.7,3.6-5,7.7-6.7,12c-1.6,4-3.2,8-4.8,11.9h-32.8
				c-3.4-15.7-17.5-27.5-34.2-27.5s-30.8,11.8-34.2,27.5H46.1C48,172.7,69,125.3,102.4,89.5z M117,225c3-7.3,10.2-12.5,18.5-12.5
				s15.6,5.2,18.5,12.5H117z M154,240c-3,7.3-10.2,12.5-18.5,12.5s-15.6-5.2-18.5-12.5H154z M104.8,373.1l-2.5,2.5
				C68.1,338.9,47.9,291,46.1,240h55.2c3.4,15.7,17.5,27.5,34.2,27.5s30.7-11.8,34.2-27.5h26.8c-3.5,8.8-6.9,17.2-10.1,25.4
				c-5.3-3.2-11.4-4.9-17.8-4.9c-19.3,0-35,15.7-35,35c0,9.9,4.1,18.8,10.7,25.2c-3.2-0.9-6.5-1.5-9.9-1.5c-19.3,0-35,15.7-35,35
				C99.3,361.2,101.3,367.6,104.8,373.1z M152.7,346.4c0.2,0.5,0.4,1,0.6,1.6c-3.4,8.5-6.6,16.4-9.6,23.9c-2.9,1.5-6.1,2.4-9.4,2.4
				c-2.8,0-5.4-0.6-7.8-1.6L152.7,346.4z M115.9,362c-1-2.4-1.6-5-1.6-7.8c0-11,9-20,20-20c2.7,0,5.4,0.6,7.8,1.6L115.9,362z
				 M148.5,295.5c0-11,9-20,20-20c4.4,0,8.7,1.4,12.1,4.1c-4.1,10.3-8.1,20.1-11.8,29.4l-5.7,5.7
				C154.7,312.4,148.5,304.7,148.5,295.5z M112.9,386.2l2.5-2.5c5.4,3.5,11.9,5.5,18.9,5.5c0.8,0,1.7,0,2.5-0.1l-5.1,12.7
				C125.1,396.9,118.8,391.7,112.9,386.2z M398.5,488.9c0,0.2,0,0.4,0,0.6c0,4.1-3.4,7.5-7.5,7.5H121c-4.1,0-7.5-3.4-7.5-7.5
				c0-0.2,0-0.4,0-0.6c1.2-3.9,88.1-221.4,107.7-270.3c1.8-4.5,4.3-8.4,7.5-11.8c0.3-0.2,0.6-0.5,0.9-0.8c0.3-0.3,0.6-0.6,0.8-0.9
				c6.8-6.4,15.9-10.1,25.6-10.1c15.4,0,29.1,9.3,34.8,23.6c12.8,32.1,24.1,60.4,34.1,85.4c0.2,0.4,0.3,0.8,0.5,1.1
				c0.6,1.5,1.2,3,1.8,4.4c0.1,0.3,0.2,0.6,0.4,0.9c2.8,7,5.5,13.6,8,20.1l1.9,4.8h0c7.1,17.9,13.5,33.7,19.1,47.6l13.3,33.2
				C389.8,466,397.4,485.1,398.5,488.9z M331.8,280.8c9.5,1.6,16.7,9.8,16.7,19.7c0,3.9-1.1,7.6-3.1,10.8l-2.2-2.2
				c-2.8-7-5.7-14.3-8.7-21.9C333.6,285.1,332.7,282.9,331.8,280.8z M359.2,349.1c0.4-0.5,0.9-1,1.4-1.5l28.3,28.3
				c-3.6,3.9-8.8,6.3-14.5,6.3c-0.6,0-1.3,0-1.9-0.1l-1.9-4.7c-0.7-1.7-1.4-3.5-2.1-5.3L359.2,349.1z M380.3,401.8l-1.9-4.8
				c5.1-0.6,9.9-2.3,14.1-4.8C388.5,395.5,384.4,398.7,380.3,401.8z M376.5,342.3c9.3,1,16.7,8.4,17.7,17.7L376.5,342.3z
				 M409.7,375.6l-2.2-2.2c1.2-3.5,1.8-7.2,1.8-11.1c0-19.3-15.7-35-35-35c-3.8,0-7.6,0.6-11.1,1.8l-7-7c4.7-6,7.4-13.6,7.4-21.5
				c0-19.3-15.7-35-35-35c-0.9,0-1.8,0-2.7,0.1c-3.3-8.2-6.7-16.8-10.2-25.6h12.8c3.4,15.7,17.5,27.5,34.2,27.5s30.7-11.8,34.2-27.5
				h3.4c3.4,15.7,17.5,27.5,34.2,27.5c13.5,0,25.3-7.7,31.1-18.9C461.7,296.3,441.9,341,409.7,375.6z M344,225
				c3-7.3,10.2-12.5,18.5-12.5s15.6,5.2,18.5,12.5H344z M381.1,240c-3,7.3-10.2,12.5-18.5,12.5S347,247.3,344,240H381.1z M415.8,225
				c3-7.3,10.2-12.5,18.5-12.5s15.6,5.2,18.5,12.5H415.8z M452.8,240c-3,7.3-10.2,12.5-18.5,12.5s-15.6-5.2-18.5-12.5H452.8z
				 M434.3,197.5c-16.7,0-30.8,11.8-34.2,27.5h-3.4c-3.4-15.7-17.5-27.5-34.2-27.5s-30.8,11.8-34.2,27.5h-18.8
				c-1.6-3.9-3.2-7.9-4.8-11.9c-1.7-4.4-4-8.4-6.7-12L409.6,89.5c31.5,33.8,52,78.1,55.8,127C459.6,205.2,447.8,197.5,434.3,197.5z"
				/>
		</g>
	</g>
	<g>
		<g>
			<path class="st0" d="M341.2,387.6l-10.5-26.1c-3.3-8.2-11.1-13.5-20-13.5c-0.2,0-0.3,0-0.5,0c-10.9-27.3-23.9-59.8-39.4-98.6
				c4.7-4.1,7.7-10.2,7.7-16.9c0-2.9-0.5-5.7-1.6-8.3c-2.8-7.1-10.4-14.2-20.9-14.2c-10.5,0-18.1,7.1-20.9,14.2l-0.2,0.4
				c-0.1,0.1-0.1,0.3-0.2,0.5c-0.1,0.4-0.3,0.8-0.4,1.2c-0.6,2-0.8,4-0.8,6.1c0,12.4,10.1,22.5,22.5,22.5c0.3,0,0.6,0,0.9,0
				c15.5,38.8,28.5,71.2,39.4,98.6c-2.3,2-4.1,4.6-5.3,7.5c-2.3,5.3-2.3,11.1-0.2,16.5l10.5,26.1c3.3,8.2,11.1,13.5,20,13.5
				c2.7,0,5.4-0.5,8-1.5c5.3-2.1,9.5-6.2,11.8-11.5C343.3,398.8,343.3,393,341.2,387.6z M258.9,239.4
				C258.8,239.4,258.8,239.5,258.9,239.4c-0.1,0-0.1,0.1-0.2,0.1c-0.8,0.3-1.7,0.5-2.7,0.5c-4.1,0-7.5-3.4-7.5-7.5
				c0-0.7,0.1-1.4,0.3-2c0-0.1,0.1-0.3,0.1-0.4l0.1-0.2l0-0.1c0.7-1.7,3-4.8,7-4.8c4,0,6.3,3.1,7,4.8c0.3,0.9,0.5,1.8,0.5,2.7
				C263.5,235.6,261.6,238.3,258.9,239.4z M327.2,398.2c-0.7,1.6-1.9,2.8-3.6,3.5c-0.8,0.3-1.6,0.5-2.4,0.5c-2.7,0-5-1.6-6-4.1
				l-10.5-26.1c-0.6-1.6-0.6-3.4,0.1-5c0.7-1.6,1.9-2.8,3.6-3.5c0.8-0.3,1.6-0.5,2.4-0.5c2.7,0,5,1.6,6,4.1l10.5,26.1
				C327.9,394.8,327.9,396.6,327.2,398.2z"/>
		</g>
	</g>
</g>
</svg>
