<?xml version="1.0" encoding="utf-8"?>
<!-- Generator: Adobe Illustrator 24.0.1, SVG Export Plug-In . SVG Version: 6.00 Build 0)  -->
<svg version="1.1" id="Layer_1" xmlns="http://www.w3.org/2000/svg" xmlns:xlink="http://www.w3.org/1999/xlink" x="0px" y="0px"
	 viewBox="0 0 152 152" style="enable-background:new 0 0 152 152;" xml:space="preserve">
<style type="text/css">
	.st0{fill:#4C4C4C;}
	.st1{opacity:0.5;fill:#3A3A3A;enable-background:new    ;}
</style>
<path class="st0" d="M75.5,150.5c-41.4,0-75-33.6-75-75c0-19.9,7.9-39,22-53c29.3-29.3,76.8-29.3,106.1,0c14.1,14.1,22,33.1,22,53
	C150.4,116.9,116.9,150.4,75.5,150.5z M30.3,126.2l0.7,0.6c11.2,9.7,25.3,15.5,40.1,16.4h0.9v-15h-0.8c-10.9-0.8-21.2-5.1-29.6-12.1
	l-0.6-0.5L30.3,126.2z M109.4,115.9c-8.3,7-18.6,11.3-29.5,12.1h-0.8v15.1H80c14.8-1,28.9-6.8,40-16.5l0.7-0.6L110,115.3
	L109.4,115.9z M75.5,29.5c-25.4,0-46,20.6-46,46s20.6,46,46,46c0,0,0,0,0,0c12.2,0,23.9-4.8,32.5-13.5c8.6-8.6,13.5-20.3,13.5-32.5
	C121.4,50.1,100.9,29.5,75.5,29.5L75.5,29.5z M7.7,80.5c1.1,14.9,7,29,17,40.1l0.6,0.7l10.8-10.8l-0.6-0.5
	c-7.2-8.3-11.6-18.7-12.5-29.6v-0.8H7.8L7.7,80.5z M128.1,80.4c-1,10.9-5.4,21.2-12.6,29.6l-0.6,0.6l10.8,10.8l0.6-0.7
	c9.9-11.1,15.9-25.2,16.9-40v-1h-15.1L128.1,80.4z M115.6,41l0.5,0.6c7.1,8.5,11.4,19,12.1,30.1v0.8h15.1v-0.9
	c-0.8-15-6.6-29.2-16.5-40.5l-0.6-0.7L115.6,41z M24.2,31C14.3,42.3,8.5,56.6,7.6,71.6v0.9h15.1v-0.8c0.8-11.1,5-21.7,12.2-30.2
	l0.5-0.6L24.8,30.2L24.2,31z M79.1,22.8h0.8c11.1,0.9,21.7,5.4,30.1,12.7l0.6,0.6l10.8-10.8l-0.7-0.6c-11.3-10-25.6-15.9-40.7-16.9
	h-0.9L79.1,22.8z M71.2,7.7c-15.1,0.9-29.4,6.9-40.7,17l-0.7,0.6l10.7,10.8l0.6-0.5c8.5-7.3,19-11.7,30.2-12.6h0.8V7.6L71.2,7.7z"/>
<path class="st1" d="M89.2,66.7c-3.2-3-13.7-11.9-13.7-11.9L61.8,66.7c-3.2,3-7.2,6.4-7.2,13.6c0.3,4.5,3.6,8.2,8,9.1
	c4.4,0.9,8.8-1.3,10.9-5.3v1.3c-0.2,2.6-1.1,5.1-2.8,7.2c-1.3,1.5-2.9,2.7-4.7,3.6h19.1c-1.8-0.8-3.4-2.1-4.7-3.6
	c-1.6-2.1-2.6-4.6-2.8-7.2v-1.3c2,4,6.5,6.2,10.9,5.3c4.4-0.9,7.7-4.6,8-9.1C96.5,73.1,92.4,69.7,89.2,66.7z"/>
</svg>
