<?xml version="1.0" encoding="utf-8"?>
<!-- Generator: Adobe Illustrator 24.0.1, SVG Export Plug-In . SVG Version: 6.00 Build 0)  -->
<svg version="1.1" id="Layer_1" xmlns="http://www.w3.org/2000/svg" xmlns:xlink="http://www.w3.org/1999/xlink" x="0px" y="0px"
	 viewBox="0 0 182 154" style="enable-background:new 0 0 182 154;" xml:space="preserve">
<style type="text/css">
	.st0{fill:#4C4C4C;}
	.st1{opacity:0.5;fill:#3A3A3A;enable-background:new    ;}
</style>
<path class="st0" d="M90.2,151.1l-2.7-2.3L29.5,98.5C16.8,86.6,1.1,71.8,1.1,42.7c0-22.9,19.4-41.6,43.2-41.6
	c23.3,0,39.4,13.3,45.9,20c6.6-6.7,22.5-20,45.9-20c23.8,0,43.2,18.7,43.2,41.6c0,29.2-15.8,44-28.5,55.9l-2.1,2.1
	c-12.7,12-53.9,46.7-55.7,48.1L90.2,151.1z M44.2,9.5C25.1,9.5,9.5,24.3,9.5,42.6c0,25.5,13.7,38.3,25.8,49.7l2.2,2.1
	c10.6,10.1,43,37.4,52.6,45.5l52.6-45.5l2.2-2.1c12.1-11.3,25.8-24.2,25.8-49.7c0-18.2-15.6-33.1-34.7-33.1
	c-26.4,0-42.4,20.3-42.6,20.5l-3.4,4.4l-3.3-4.4C86.6,29.8,70.7,9.5,44.2,9.5L44.2,9.5z"/>
<path class="st1" d="M73,82.3c3.9,3.7,17.2,14.9,17.2,14.9l17.2-14.9c3.9-3.7,9.1-8,9.1-17c-0.2-6.5-5.5-11.7-12.1-11.6
	c-5.5,0.1-10.7,2.6-14.2,6.9l0,0c-3.5-4.2-8.7-6.7-14.2-6.9c-6.5-0.1-11.9,5.1-12,11.6C63.9,74.3,69.1,78.6,73,82.3z"/>
</svg>
