<?xml version="1.0" encoding="utf-8"?>
<!-- Generator: Adobe Illustrator 24.0.1, SVG Export Plug-In . SVG Version: 6.00 Build 0)  -->
<svg version="1.1" id="Layer_1" xmlns="http://www.w3.org/2000/svg" xmlns:xlink="http://www.w3.org/1999/xlink" x="0px" y="0px"
	 viewBox="0 0 187 154" style="enable-background:new 0 0 187 154;" xml:space="preserve">
<style type="text/css">
	.st0{opacity:0.5;fill:#3A3A3A;enable-background:new    ;}
	.st1{fill:#4C4C4C;}
</style>
<path class="st0" d="M74.4,96.5h36.9V143H74.4V96.5z"/>
<path class="st1" d="M37.4,151c-2.2,0-4-1.8-4-4v-65c0-1.2,0.5-2.3,1.5-3.1l55.5-49.6c1.5-1.2,3.5-1.2,5,0L150.9,79
	c0.9,0.8,1.5,1.9,1.5,3.1v65.1c0,2.2-1.8,4-4,4L37.4,151z M41.4,83.9v59.1h103.1V83.9L92.9,37.5L41.4,83.9z"/>
<path class="st1" d="M36.4,87.6H5c-1.6,0-3.1-1-3.7-2.6c-0.6-1.5-0.2-3.3,1-4.4L90.2,2.1c1.6-1.5,4.2-1.3,5.6,0.3c0,0,0,0,0,0
	c1.5,1.7,1.3,4.2-0.3,5.7L15.4,79.6h21c2.2,0,4,1.8,4,4C40.4,85.8,38.7,87.6,36.4,87.6L36.4,87.6z"/>
<path class="st1" d="M180.7,87.6h-31.5c-2.2,0-4-1.8-4-4c0-2.2,1.8-4,4-4h21L90.2,8c-1.7-1.5-1.8-4-0.3-5.7s4-1.8,5.7-0.3
	c0,0,0,0,0,0l87.9,78.6c1.7,1.5,1.8,4,0.3,5.6C183,87.1,181.9,87.6,180.7,87.6L180.7,87.6z"/>
</svg>
