<?xml version="1.0" encoding="utf-8"?>
<!-- Generator: Adobe Illustrator 24.0.1, SVG Export Plug-In . SVG Version: 6.00 Build 0)  -->
<svg version="1.1" id="Layer_1" xmlns:svgjs="http://svgjs.com/svgjs"
	 xmlns="http://www.w3.org/2000/svg" xmlns:xlink="http://www.w3.org/1999/xlink" x="0px" y="0px" viewBox="0 0 512 512"
	 style="enable-background:new 0 0 512 512;" xml:space="preserve">
<style type="text/css">
	.st0{fill:#4C4C4C;}
</style>
<g>
	<path class="st0" d="M362,392v40c0,44.1-35.9,80-80,80H81c-44.1,0-80-35.9-80-80V80C1,35.9,36.9,0,81,0h201c44.1,0,80,35.9,80,80
		v40c0,11-9,20-20,20s-20-9-20-20V80c0-22.1-17.9-40-40-40H81c-22.1,0-40,17.9-40,40v352c0,22.1,17.9,40,40,40h201
		c22.1,0,40-17.9,40-40v-40c0-11,9-20,20-20S362,381,362,392z M498.4,221.6l-44.8-44.8c-7.8-7.8-20.5-7.8-28.3,0
		c-7.8,7.8-7.8,20.5,0,28.3l31.9,31.9H217c-11,0-20,9-20,20s9,20,20,20h240.1l-31.9,31.9c-7.8,7.8-7.8,20.5,0,28.3
		c3.9,3.9,9,5.9,14.1,5.9c5.1,0,10.2-2,14.1-5.9l44.8-44.8C517.9,272.9,517.9,241.1,498.4,221.6z"/>
</g>
</svg>
