<?xml version="1.0" encoding="utf-8"?>
<!-- Generator: Adobe Illustrator 24.0.1, SVG Export Plug-In . SVG Version: 6.00 Build 0)  -->
<svg version="1.1" id="Layer_1" xmlns="http://www.w3.org/2000/svg" xmlns:xlink="http://www.w3.org/1999/xlink" x="0px" y="0px"
	 viewBox="0 0 223 154" style="enable-background:new 0 0 223 154;" xml:space="preserve">
<style type="text/css">
	.st0{opacity:0.5;fill:#4C4C4C;enable-background:new    ;}
	.st1{fill:#4C4C4C;}
</style>
<path class="st0" d="M90.3,111.1c-0.6,0-1.2-0.2-1.8-0.5c-1.7-1-2.2-3.1-1.3-4.8L123.5,43c0.6-1.1,1.8-1.7,3-1.8
	c0.6,0,1.2,0.2,1.8,0.5c0.8,0.5,1.4,1.2,1.6,2.1c0.2,0.9,0.1,1.9-0.4,2.7l-36.2,62.8C92.7,110.4,91.6,111,90.3,111.1z M87.9,76.3
	c-8.8,0-15.9-7.1-15.9-15.9c0-8.8,7.1-15.9,15.9-15.9c8.8,0,15.9,7.1,15.9,15.9C103.9,69.2,96.7,76.3,87.9,76.3L87.9,76.3L87.9,76.3
	z M87.9,52.8c-4.2,0-7.6,3.4-7.6,7.6s3.4,7.6,7.6,7.6c4.2,0,7.6-3.4,7.6-7.6c0,0,0,0,0,0C95.5,56.2,92.1,52.8,87.9,52.8z M129,107.8
	c-8.8,0-15.9-7.2-15.9-15.9c0-8.8,7.2-15.9,15.9-15.9c2.1,0,4.1,0.4,6,1.2c5.9,2.5,9.8,8.3,9.8,14.7
	C144.9,100.6,137.8,107.7,129,107.8L129,107.8z M129,84.3c-4.2,0-7.6,3.4-7.6,7.6c0,4.2,3.4,7.6,7.6,7.6c4.2,0,7.6-3.4,7.6-7.6
	c0,0,0,0,0,0c0-2-0.8-3.9-2.2-5.4C132.9,85.1,131,84.3,129,84.3z"/>
<path class="st1" d="M1,94.8c0-0.9,0.2-1.8,0.6-2.6l8.3-16.1L1.6,60C1.2,59.2,1,58.4,1,57.5c0-1.5,0.6-2.9,1.6-4
	c1.1-1.1,2.5-1.7,4-1.7h43.2c1.1,0,2.1,0.4,2.8,1.2c0.7,0.7,1.1,1.7,1,2.8v40.7c0,2.2-1.8,3.9-3.9,3.9H6.6C3.5,100.4,1,97.9,1,94.8
	C1,94.8,1,94.8,1,94.8L1,94.8z M18.1,76.1c0,0.9-0.2,1.8-0.6,2.6l-7.1,13.9h35.5V59.8H10.4l7,13.8C17.9,74.3,18.1,75.2,18.1,76.1
	L18.1,76.1z M214.4,100.4h-43.2c-2.2,0-4-1.7-4-3.9V55.8c0-1,0.4-2,1.1-2.8c0.7-0.8,1.7-1.2,2.8-1.2h43.4c3.1,0,5.6,2.5,5.6,5.6
	c0,0.9-0.2,1.8-0.6,2.6l-8.3,16.1l8.3,16.1c0.4,0.8,0.6,1.7,0.6,2.6C220,97.9,217.5,100.4,214.4,100.4
	C214.4,100.4,214.4,100.4,214.4,100.4L214.4,100.4z M203.5,73.6l7-13.8h-35.4v32.8h35.4l-7.1-13.9C202.7,77.1,202.7,75.2,203.5,73.6
	L203.5,73.6z"/>
<path class="st1" d="M110.5,151.1c-0.6,0-1.2-0.1-1.8-0.4L48,121.5c-1.4-0.7-2.3-2.1-2.3-3.6V34.3c0-1.6,0.9-3,2.3-3.6l60.8-29.2
	c1.3-0.7,2.9-0.7,4.2,0.2c1.2,0.8,1.9,2.3,1.8,3.7c-0.1,1.5-1.1,2.8-2.5,3.3L53.8,36.9v78.5l58.5,28.1c1.7,0.8,2.6,2.7,2.2,4.5
	S112.4,151.1,110.5,151.1L110.5,151.1z"/>
<path class="st1" d="M110.5,151.1c-1.9,0-3.5-1.3-3.9-3.1s0.5-3.7,2.2-4.5l58.5-28.1V36.8L108.8,8.7c-1.4-0.6-2.3-1.9-2.5-3.3
	c-0.1-1.5,0.6-2.9,1.8-3.7c1.2-0.8,2.8-0.9,4.2-0.2L173,30.7c1.4,0.7,2.3,2.1,2.3,3.6v83.6c0,1.5-0.9,2.9-2.3,3.6l-60.8,29.2
	C111.7,151,111.1,151.1,110.5,151.1L110.5,151.1z"/>
</svg>
