<?xml version="1.0" encoding="utf-8"?>
<!-- Generator: Adobe Illustrator 24.0.1, SVG Export Plug-In . SVG Version: 6.00 Build 0)  -->
<svg version="1.1" id="Layer_1" xmlns:svgjs="http://svgjs.com/svgjs"
	 xmlns="http://www.w3.org/2000/svg" xmlns:xlink="http://www.w3.org/1999/xlink" x="0px" y="0px" viewBox="0 0 512 512"
	 style="enable-background:new 0 0 512 512;" xml:space="preserve">
<style type="text/css">
	.st0{fill:#4C4C4C;}
	.st1{fill:#565656;}
</style>
<g>
	<g>
		<g>
			<path class="st0" d="M462.4,104.6C421.9,49.5,362.4,13.4,294.9,3C227.3-7.3,159.7,9.2,104.6,49.7C49.5,90.1,13.4,149.6,3,217.2
				c-9,58.7,2.3,117.3,31.9,167.9c0,0,0,0.1,0.1,0.1c4.5,7.6,9.4,15.1,14.7,22.3c36,49.1,88.5,83.8,147.8,97.7
				c2.7,0.6,5.4,1.2,8.1,1.8c0.6,0.2,1.1,0.3,1.7,0.3c16.2,3.1,32.5,4.7,48.8,4.7c16.4,0,32.8-1.6,48.9-4.7c0.5-0.1,0.9-0.1,1.4-0.3
				c22.4-4.5,44.2-11.9,64.7-22.3c4.9-2.5,6.9-8.5,4.4-13.4c-2.5-4.9-8.5-6.9-13.4-4.4c-12.4,6.2-25.1,11.3-37.9,15.2l41.5-71.9
				l81.2-15.2c-7.1,9.7-14.9,19-23.6,27.7c-3.9,3.9-3.9,10.2,0,14.1c3.9,3.9,10.2,3.9,14.1,0c15.3-15.3,28.5-32.4,39.3-50.9
				c0.1-0.1,0.2-0.3,0.2-0.4c17.7-30.2,29.1-63.9,33.3-99.2c0-0.2,0.1-0.5,0.1-0.7c0.4-3,0.7-6.1,0.9-9.2
				C516.1,215.2,498.8,154.2,462.4,104.6z M291.8,22.8c51.8,8,98.4,32.3,134.1,69.5l-12.2,104.9l-78.4,17.6l-69.1-50.2V89.5l15.4-11
				c4.5-3.2,5.5-9.5,2.3-14c-3.2-4.5-9.5-5.5-14-2.3l-14.4,10.3l-68.9-42.1C220.3,20,256.1,17.3,291.8,22.8z M190.6,229.3l32.6-23.7
				l32.6-23.7l65.1,47.3L296,305.9h-80.5v0L190.6,229.3z M116.4,65.8c14.6-10.7,30.2-19.6,46.4-26.6l83,50.8v74.6l-69.1,50.2
				L98,197.1L81.9,96.7C92.3,85.4,103.8,75,116.4,65.8z M22.8,220.2c5.8-37.8,20.3-72.8,42.2-102.9l13.5,84.6l-58.5,59
				C19.8,247.4,20.7,233.8,22.8,220.2z M22,287.3l70.3-71l78.8,17.7l26.1,80.4l-49.2,75.7l-98-18.8C35.4,345.2,25.9,316.7,22,287.3z
				 M65.8,395.6c-0.3-0.4-0.5-0.7-0.8-1.1l81.4,15.6l41.6,72.1C140.5,467.9,97.2,438.5,65.8,395.6z M297.3,488.6
				c-27.6,5-55.5,4.9-82.5,0.1l-50.3-87.1l49.2-75.6h84.7l49.2,75.6L297.3,488.6z M461.5,371.8L364,390.2l-49.2-75.7l26.1-80.4
				l78.7-17.7l69.8,71.6C485.4,317.2,476.1,345.7,461.5,371.8z M491.5,261.5l-58.1-59.7l10.3-88.8c0.9,1.1,1.7,2.3,2.6,3.4
				C477.8,159.5,492.7,210.7,491.5,261.5z"/>
		</g>
	</g>
	<g>
		<g>
			<path class="st1" d="M310.9,43.2c-1.9-1.9-4.4-2.9-7.1-2.9s-5.2,1.1-7.1,2.9s-2.9,4.4-2.9,7.1s1.1,5.2,2.9,7.1
				c1.9,1.9,4.4,2.9,7.1,2.9s5.2-1.1,7.1-2.9c1.9-1.9,2.9-4.4,2.9-7.1S312.7,45.1,310.9,43.2z"/>
		</g>
	</g>
	<g>
		<g>
			<path class="st1" d="M407.4,447.6c-1.9-1.9-4.4-2.9-7.1-2.9s-5.2,1.1-7.1,2.9s-2.9,4.4-2.9,7.1s1.1,5.2,2.9,7.1
				c1.9,1.9,4.4,2.9,7.1,2.9c2.6,0,5.2-1.1,7.1-2.9c1.9-1.9,2.9-4.4,2.9-7.1S409.3,449.5,407.4,447.6z"/>
		</g>
	</g>
</g>
</svg>
