<?xml version="1.0" encoding="utf-8"?>
<!-- Generator: Adobe Illustrator 24.0.1, SVG Export Plug-In . SVG Version: 6.00 Build 0)  -->
<svg version="1.1" id="Layer_1" xmlns="http://www.w3.org/2000/svg" xmlns:xlink="http://www.w3.org/1999/xlink" x="0px" y="0px"
	 viewBox="0 0 80.3 75.2" style="enable-background:new 0 0 80.3 75.2;" xml:space="preserve">
<style type="text/css">
	.st0{fill:#4C4C4C;}
	.st1{opacity:0.5;fill:#4C4C4C;enable-background:new    ;}
</style>
<path class="st0" d="M64.8,61c3.9,0,7,3.1,7,7v0.2c0,3.9-3.1,7-7,7H16c-3.9,0-7-3.1-7-7V68c0-3.9,3.1-7,7-7H64.8z M64.8,71.4
	c1.8,0,3.2-1.4,3.2-3.2V68c0-1.8-1.4-3.2-3.2-3.2H16c-1.8,0-3.2,1.4-3.2,3.2v0.2c0,1.8,1.4,3.2,3.2,3.2H64.8z"/>
<polygon class="st1" points="50,45.2 39.4,58.3 28.7,45.2 39.4,32 "/>
<path class="st0" d="M19.8,64.5c-0.9,0-1.7-0.6-1.9-1.4L5.3,19.8c-0.3-1.1,0.3-2.2,1.4-2.5c0.6-0.2,1.2-0.1,1.7,0.3L27.2,31
	L38.1,7.8c0.5-1,1.7-1.4,2.7-1c1,0.5,1.4,1.7,1,2.7l0,0L29.8,34.9c-0.5,1-1.6,1.4-2.7,1c-0.1-0.1-0.2-0.1-0.3-0.2L10.7,24.2l11,37.7
	c0.3,1.1-0.3,2.2-1.3,2.5c0,0,0,0,0,0C20.1,64.5,20,64.5,19.8,64.5z"/>
<path class="st0" d="M59.9,64.5c-0.2,0-0.4,0-0.6-0.1c-1.1-0.3-1.7-1.4-1.4-2.5c0,0,0,0,0,0l11-37.7L52.9,35.6
	c-0.9,0.7-2.1,0.5-2.8-0.4C50,35.1,50,35,49.9,34.8L38,9.5c-0.5-1,0-2.2,1-2.7c1-0.5,2.2,0,2.7,1L52.6,31l18.8-13.4
	c0.9-0.6,2.1-0.4,2.8,0.5c0.4,0.5,0.5,1.1,0.3,1.7L61.8,63.1C61.6,63.9,60.8,64.5,59.9,64.5z"/>
<path class="st0" d="M46,6.1c0,3.4-2.7,6.1-6.1,6.1c-3.4,0-6.1-2.7-6.1-6.1c0-3.4,2.7-6.1,6.1-6.1S46,2.7,46,6.1L46,6.1z"/>
<path class="st0" d="M12.3,18.1c0,3.4-2.7,6.1-6.1,6.1c-3.4,0-6.1-2.7-6.1-6.1C0,14.7,2.7,12,6.1,12S12.3,14.7,12.3,18.1L12.3,18.1z
	"/>
<path class="st0" d="M66.7,18.1c0,3.8,3.1,6.8,6.8,6.8s6.8-3.1,6.8-6.8s-3.1-6.8-6.8-6.8C69.8,11.3,66.7,14.4,66.7,18.1
	C66.7,18.1,66.7,18.1,66.7,18.1z"/>
</svg>
